<?xml version="1.0" encoding="UTF-8"?>
<svg width="700pt" height="700pt" version="1.1" viewBox="0 0 700 700" xmlns="http://www.w3.org/2000/svg" xmlns:xlink="http://www.w3.org/1999/xlink">
 <g>
  <path d="m309.19 209.53c81.48 0 147.54-11.16 147.54-25.027v-59.227c-8.3281 5.2578-21.754 9.1953-41.715 12.578-28.32 4.8516-65.918 7.6406-105.83 7.6406-39.914 0-77.5-2.7891-105.84-7.6406-19.957-3.3867-33.383-7.3203-41.719-12.578v59.227c0.003907 13.867 66.074 25.027 147.55 25.027z"/>
  <path d="m309.19 287.29c81.48 0 147.54-11.16 147.54-25.023v-59.23c-8.3281 5.2656-21.754 9.1875-41.715 12.578-28.32 4.8516-65.918 7.6406-105.83 7.6406-39.914 0-77.5-2.7891-105.84-7.6406-19.957-3.3906-33.383-7.3164-41.719-12.578v59.234c0.003907 13.859 66.074 25.02 147.55 25.02z"/>
  <path d="m161.66 280.79v59.234c0 13.836 66.066 25.016 147.54 25.016 13.469 0 26.527-0.30859 38.926-0.87109 8.1641-30.734 29.695-56.105 57.902-69.391-27.043 3.9805-61.016 6.2305-96.828 6.2305-39.898 0-77.492-2.8086-105.86-7.6562-19.953-3.3672-33.367-7.3047-41.68-12.562z"/>
  <path d="m451.64 284.52c1.7344 0 3.4219 0.050781 5.1016 0.15625v-3.8828c-2.1445 1.332-4.5938 2.6055-7.3984 3.7773 0.76953-0.050781 1.5273-0.050781 2.2969-0.050781z"/>
  <path d="m345.42 377.95c-11.734 0.56641-23.871 0.82031-36.223 0.82031-39.898 0-77.492-2.8086-105.86-7.6602-19.945-3.3711-33.367-7.3008-41.68-12.559v59.227c0 13.836 66.066 25.023 147.54 25.023 16.633 0 32.652-0.46484 47.602-1.3281-7.8555-14.859-12.301-31.812-12.301-49.738 0-4.6406 0.30469-9.2891 0.92188-13.785z"/>
  <path d="m309.19 131.77c81.48 0 147.54-11.387 147.54-25.293 0-13.859-66.07-25.023-147.54-25.023-81.48 0-147.55 11.16-147.55 25.023 0 13.902 66.07 25.293 147.55 25.293z"/>
  <path d="m456.73 305.1c-1.6797-0.10547-3.4141-0.15234-5.1016-0.15234-37.805 0-69.945 24.152-81.781 57.898-1.625 4.4961-2.8555 9.1445-3.6211 13.945-0.86719 4.8398-1.3281 9.8516-1.3281 14.957 0 17.824 5.3594 34.312 14.488 48.047 15.562 23.383 42.09 38.754 72.246 38.754 47.902 0 86.727-38.859 86.727-86.805 0-46.258-36.121-84.047-81.629-86.645zm15.309 40.691h20.406v58.82l-10.301-10.309-9.0352 9.0352-1.0703 1.0781zm-56.121 71.488h-20.41v-40.855h20.41zm25.512 0h-20.41v-51.062h20.41zm25.508 0h-20.41l0.003906-61.273h20.41zm5.1016-7.7656 7.75 7.7578h-7.75zm40.809 22.777-5.4062 5.4102-12.656-12.668-12.645 12.668-5.4102-5.4102 12.652-12.668-2.3477-2.3477-10.305-10.312 5.4102-5.4102 10.301 10.312 2.3477 2.3516 12.656-12.668 5.4062 5.4102-12.652 12.66z"/>
  <use x="70" y="636.363281" xlink:href="#w"/>
  <use x="88.679688" y="636.363281" xlink:href="#b"/>
  <use x="101.234375" y="636.363281" xlink:href="#a"/>
  <use x="118.496094" y="636.363281" xlink:href="#e"/>
  <use x="135.675781" y="636.363281" xlink:href="#d"/>
  <use x="147.84375" y="636.363281" xlink:href="#a"/>
  <use x="165.105469" y="636.363281" xlink:href="#j"/>
  <use x="192.1875" y="636.363281" xlink:href="#i"/>
  <use x="210.410156" y="636.363281" xlink:href="#h"/>
  <use x="235.863281" y="636.363281" xlink:href="#g"/>
  <use x="253.226562" y="636.363281" xlink:href="#b"/>
  <use x="265.78125" y="636.363281" xlink:href="#a"/>
  <use x="283.046875" y="636.363281" xlink:href="#v"/>
  <use x="299.636719" y="636.363281" xlink:href="#c"/>
  <use x="317.125" y="636.363281" xlink:href="#b"/>
  <use x="338.539062" y="636.363281" xlink:href="#u"/>
  <use x="359.667969" y="636.363281" xlink:href="#t"/>
  <use x="374.820312" y="636.363281" xlink:href="#c"/>
  <use x="392.308594" y="636.363281" xlink:href="#f"/>
  <use x="410.429688" y="636.363281" xlink:href="#s"/>
  <use x="425.246094" y="636.363281" xlink:href="#e"/>
  <use x="70" y="661.816406" xlink:href="#r"/>
  <use x="81.074219" y="661.816406" xlink:href="#b"/>
  <use x="93.628906" y="661.816406" xlink:href="#c"/>
  <use x="111.113281" y="661.816406" xlink:href="#q"/>
  <use x="146.5" y="661.816406" xlink:href="#d"/>
  <use x="158.667969" y="661.816406" xlink:href="#p"/>
  <use x="176.789062" y="661.816406" xlink:href="#a"/>
  <use x="202.914062" y="661.816406" xlink:href="#o"/>
  <use x="224.21875" y="661.816406" xlink:href="#c"/>
  <use x="241.707031" y="661.816406" xlink:href="#f"/>
  <use x="259.828125" y="661.816406" xlink:href="#n"/>
  <use x="286.8125" y="661.816406" xlink:href="#m"/>
  <use x="305.46875" y="661.816406" xlink:href="#b"/>
  <use x="318.019531" y="661.816406" xlink:href="#c"/>
  <use x="335.507812" y="661.816406" xlink:href="#l"/>
  <use x="344.234375" y="661.816406" xlink:href="#a"/>
  <use x="361.496094" y="661.816406" xlink:href="#k"/>
  <use x="376.585937" y="661.816406" xlink:href="#d"/>
 </g>
</svg>
