<?xml version="1.0" encoding="UTF-8"?>
<svg width="700pt" height="700pt" version="1.1" viewBox="0 0 700 700" xmlns="http://www.w3.org/2000/svg" xmlns:xlink="http://www.w3.org/1999/xlink">
 <g>
  <path d="m607.71 109.79-87.5-87.5c-3.0938-3.0898-7.293-4.8086-11.664-4.7852h-371.82c-13.055 0.015625-25.566 5.207-34.797 14.438s-14.422 21.742-14.438 34.797v426.53c0.015625 13.055 5.207 25.566 14.438 34.797s21.742 14.422 34.797 14.438h426.53c13.055-0.015625 25.566-5.207 34.797-14.438s14.422-21.742 14.438-34.797v-371.88c0.007812-4.3516-1.7109-8.5273-4.7852-11.605zm-350.7-59.445h185.97v82.02c-0.015625 4.3398-1.75 8.5-4.8203 11.574-3.0703 3.0703-7.2305 4.8008-11.574 4.8164h-153.12c-4.3398-0.015625-8.5-1.7461-11.57-4.8164-3.0703-3.0742-4.8047-7.2344-4.8203-11.574zm251.59 459.38h-317.22v-196.88c0.015625-4.3398 1.75-8.5 4.8203-11.57 3.0703-3.0703 7.2305-4.8047 11.574-4.8203h284.43c4.3438 0.015625 8.5039 1.75 11.574 4.8203 3.0703 3.0703 4.8047 7.2305 4.8203 11.57zm71.109-16.391h-0.003906c-0.011719 4.3438-1.7461 8.5039-4.8164 11.574-3.0703 3.0703-7.2305 4.8047-11.574 4.8164h-21.934v-196.88c-0.015625-13.051-5.207-25.566-14.438-34.793-9.2266-9.2305-21.742-14.422-34.793-14.438h-284.32c-13.051 0.015625-25.566 5.207-34.793 14.438-9.2305 9.2266-14.422 21.742-14.438 34.793v196.88h-21.875c-4.3438-0.011719-8.5039-1.7461-11.574-4.8164-3.0703-3.0703-4.8047-7.2305-4.8203-11.574v-426.59c0.015625-4.3438 1.75-8.5039 4.8203-11.574 3.0703-3.0703 7.2305-4.8047 11.574-4.8203h87.5v82.02c0.015625 13.051 5.207 25.566 14.438 34.797 9.2266 9.2266 21.742 14.422 34.793 14.434h153.12c13.055-0.011719 25.566-5.207 34.797-14.434 9.2305-9.2305 14.422-21.746 14.438-34.797v-82.02h25.844l78.047 77.992zm-120.34-30.098h-218.75c-21.699 0-21.699-32.785 0-32.785h218.75c21.699-0.058594 21.699 32.785 0 32.785zm0-87.5h-218.75c-21.699 0-21.699-32.785 0-32.785h218.75c21.699-0.058594 21.699 32.785 0 32.785z"/>
  <use x="70" y="647.5" xlink:href="#v"/>
  <use x="91.40625" y="647.5" xlink:href="#e"/>
  <use x="105.789062" y="647.5" xlink:href="#c"/>
  <use x="125.570312" y="647.5" xlink:href="#g"/>
  <use x="145.253906" y="647.5" xlink:href="#b"/>
  <use x="159.195312" y="647.5" xlink:href="#c"/>
  <use x="178.976562" y="647.5" xlink:href="#f"/>
  <use x="210.007812" y="647.5" xlink:href="#k"/>
  <use x="230.886719" y="647.5" xlink:href="#j"/>
  <use x="260.054688" y="647.5" xlink:href="#a"/>
  <use x="270.050781" y="647.5" xlink:href="#i"/>
  <use x="290.816406" y="647.5" xlink:href="#a"/>
  <use x="300.8125" y="647.5" xlink:href="#u"/>
  <use x="321.691406" y="647.5" xlink:href="#g"/>
  <use x="341.371094" y="647.5" xlink:href="#t"/>
  <use x="362.25" y="647.5" xlink:href="#a"/>
  <use x="382.402344" y="647.5" xlink:href="#s"/>
  <use x="399.761719" y="647.5" xlink:href="#b"/>
  <use x="413.707031" y="647.5" xlink:href="#h"/>
  <use x="434.46875" y="647.5" xlink:href="#f"/>
  <use x="455.347656" y="647.5" xlink:href="#a"/>
  <use x="465.34375" y="647.5" xlink:href="#d"/>
  <use x="70" y="676.667969" xlink:href="#r"/>
  <use x="82.6875" y="676.667969" xlink:href="#e"/>
  <use x="97.074219" y="676.667969" xlink:href="#d"/>
  <use x="117.109375" y="676.667969" xlink:href="#q"/>
  <use x="157.65625" y="676.667969" xlink:href="#b"/>
  <use x="171.597656" y="676.667969" xlink:href="#p"/>
  <use x="192.363281" y="676.667969" xlink:href="#c"/>
  <use x="222.300781" y="676.667969" xlink:href="#o"/>
  <use x="246.710938" y="676.667969" xlink:href="#d"/>
  <use x="266.746094" y="676.667969" xlink:href="#h"/>
  <use x="287.511719" y="676.667969" xlink:href="#i"/>
  <use x="318.429688" y="676.667969" xlink:href="#n"/>
  <use x="339.804688" y="676.667969" xlink:href="#e"/>
  <use x="354.191406" y="676.667969" xlink:href="#d"/>
  <use x="374.226562" y="676.667969" xlink:href="#m"/>
  <use x="384.226562" y="676.667969" xlink:href="#c"/>
  <use x="404.007812" y="676.667969" xlink:href="#l"/>
  <use x="421.296875" y="676.667969" xlink:href="#b"/>
 </g>
</svg>
