<?xml version="1.0" encoding="UTF-8"?>
<svg width="700pt" height="700pt" version="1.1" viewBox="0 0 700 700" xmlns="http://www.w3.org/2000/svg" xmlns:xlink="http://www.w3.org/1999/xlink">
 <g>
  <path d="m520.91 433.09c-24.242 0-45.035-16.422-51.09-39.281h-239.13c-6.0508 22.859-26.848 39.281-51.082 39.281-24.242 0-45.035-16.422-51.082-39.281h-32.336c-7.4883 0-13.559-6.0664-13.559-13.551v-239.79c0-7.4883 6.0703-13.551 13.559-13.551h341.82c7.4805 0 13.551 6.0664 13.551 13.551v37.465h28.211c75.707 0 137.6 61.891 137.6 137.6v64.727c0 7.4883-6.0703 13.551-13.551 13.551h-31.82c-6.0508 22.859-26.848 39.281-51.082 39.281zm51.082-66.395h18.262v-37.609h-56.109c18.441 4.7539 32.973 19.207 37.848 37.609zm-64.324-37.609h-27.898c-7.4883 0-13.559-6.0703-13.559-13.559v-110.48h-14.652v161.65h18.27c4.8672-18.402 19.398-32.852 37.84-37.609zm13.242 25.438c-14.215 0-25.73 11.516-25.73 25.73 0 14.207 11.523 25.723 25.73 25.723 14.207 0 25.723-11.516 25.723-25.723s-11.516-25.73-25.723-25.73zm-341.3-27.113c24.242 0 45.031 16.422 51.082 39.281h193.76v-212.67h-314.7v212.67h18.785c6.0508-22.867 26.84-39.281 51.082-39.281zm0 27.113c-14.215 0-25.73 11.516-25.73 25.73 0 14.207 11.523 25.723 25.73 25.723s25.723-11.516 25.723-25.723-11.516-25.73-25.723-25.73zm409.8-52.551c-6.1836-49.969-46.121-89.902-96.09-96.09v96.09z"/>
  <use x="70" y="569.921875" xlink:href="#t"/>
  <use x="72.425781" y="569.921875" xlink:href="#c"/>
  <use x="74.058594" y="569.921875" xlink:href="#a"/>
  <use x="76.300781" y="569.921875" xlink:href="#f"/>
  <use x="78.53125" y="569.921875" xlink:href="#b"/>
  <use x="80.113281" y="569.921875" xlink:href="#a"/>
  <use x="82.355469" y="569.921875" xlink:href="#m"/>
  <use x="85.875" y="569.921875" xlink:href="#l"/>
  <use x="88.242188" y="569.921875" xlink:href="#k"/>
  <use x="91.550781" y="569.921875" xlink:href="#j"/>
  <use x="93.808594" y="569.921875" xlink:href="#e"/>
  <use x="97.253906" y="569.921875" xlink:href="#i"/>
  <use x="98.695312" y="569.921875" xlink:href="#f"/>
  <use x="100.925781" y="569.921875" xlink:href="#h"/>
  <use x="103.28125" y="569.921875" xlink:href="#e"/>
  <use x="106.726562" y="569.921875" xlink:href="#s"/>
  <use x="107.859375" y="569.921875" xlink:href="#g"/>
  <use x="70" y="573.226562" xlink:href="#i"/>
  <use x="71.4375" y="573.226562" xlink:href="#c"/>
  <use x="73.070312" y="573.226562" xlink:href="#d"/>
  <use x="75.339844" y="573.226562" xlink:href="#e"/>
  <use x="79.9375" y="573.226562" xlink:href="#b"/>
  <use x="81.519531" y="573.226562" xlink:href="#h"/>
  <use x="83.875" y="573.226562" xlink:href="#a"/>
  <use x="87.269531" y="573.226562" xlink:href="#r"/>
  <use x="90.035156" y="573.226562" xlink:href="#d"/>
  <use x="92.308594" y="573.226562" xlink:href="#q"/>
  <use x="94.664062" y="573.226562" xlink:href="#g"/>
  <use x="98.167969" y="573.226562" xlink:href="#p"/>
  <use x="100.59375" y="573.226562" xlink:href="#c"/>
  <use x="102.222656" y="573.226562" xlink:href="#d"/>
  <use x="104.496094" y="573.226562" xlink:href="#o"/>
  <use x="105.628906" y="573.226562" xlink:href="#a"/>
  <use x="107.871094" y="573.226562" xlink:href="#n"/>
  <use x="109.832031" y="573.226562" xlink:href="#b"/>
 </g>
</svg>
