<?xml version="1.0" encoding="UTF-8"?>
<svg width="700pt" height="700pt" version="1.1" viewBox="0 0 700 700" xmlns="http://www.w3.org/2000/svg" xmlns:xlink="http://www.w3.org/1999/xlink">
 <g>
  <path d="m350 28c-49.285 0-89.602 40.312-89.602 89.602 0 49.285 40.316 89.598 89.602 89.598s89.602-40.312 89.602-89.598c0-49.289-40.316-89.602-89.602-89.602zm0 33.602c31.125 0 56 24.871 56 56 0 31.125-24.875 56-56 56s-56-24.875-56-56c0-31.129 24.875-56 56-56zm0 168c-92.781 0-168 75.219-168 168v72.797c0 4.457 1.7695 8.7305 4.9219 11.879 3.1484 3.1523 7.4219 4.9219 11.879 4.9219h33.598v28c0.003906 4.457 1.7734 8.7305 4.9219 11.879 3.1523 3.1523 7.4258 4.9219 11.879 4.9219h201.6c4.4531 0 8.7266-1.7695 11.879-4.9219 3.1484-3.1484 4.918-7.4219 4.9219-11.879v-28h33.598c4.457 0 8.7305-1.7695 11.879-4.9219 3.1523-3.1484 4.9219-7.4219 4.9219-11.879v-72.797c0-92.781-75.219-168-168-168zm0 33.598c74.75 0 134.4 59.652 134.4 134.4v56h-33.598c-4.457 0-8.7305 1.7695-11.879 4.918-3.1523 3.1523-4.9219 7.4258-4.9219 11.879v28h-168v-28c0-4.4531-1.7695-8.7266-4.9219-11.879-3.1484-3.1484-7.4219-4.918-11.879-4.918h-33.598v-56c0-74.75 59.648-134.4 134.4-134.4z"/>
  <use x="70" y="644" xlink:href="#s"/>
  <use x="90.550781" y="644" xlink:href="#c"/>
  <use x="104.359375" y="644" xlink:href="#a"/>
  <use x="123.347656" y="644" xlink:href="#g"/>
  <use x="142.242188" y="644" xlink:href="#b"/>
  <use x="155.628906" y="644" xlink:href="#a"/>
  <use x="174.617188" y="644" xlink:href="#k"/>
  <use x="204.410156" y="644" xlink:href="#j"/>
  <use x="224.453125" y="644" xlink:href="#f"/>
  <use x="252.453125" y="644" xlink:href="#e"/>
  <use x="269.046875" y="644" xlink:href="#g"/>
  <use x="287.945312" y="644" xlink:href="#b"/>
  <use x="301.328125" y="644" xlink:href="#i"/>
  <use x="321.261719" y="644" xlink:href="#f"/>
  <use x="349.261719" y="644" xlink:href="#h"/>
  <use x="378.4375" y="644" xlink:href="#d"/>
  <use x="397.671875" y="644" xlink:href="#r"/>
  <use x="414.339844" y="644" xlink:href="#a"/>
  <use x="433.328125" y="644" xlink:href="#c"/>
  <use x="70" y="672" xlink:href="#q"/>
  <use x="82.183594" y="672" xlink:href="#c"/>
  <use x="95.992188" y="672" xlink:href="#d"/>
  <use x="115.226562" y="672" xlink:href="#h"/>
  <use x="154.152344" y="672" xlink:href="#b"/>
  <use x="167.535156" y="672" xlink:href="#i"/>
  <use x="187.46875" y="672" xlink:href="#a"/>
  <use x="216.207031" y="672" xlink:href="#p"/>
  <use x="239.640625" y="672" xlink:href="#d"/>
  <use x="258.878906" y="672" xlink:href="#o"/>
  <use x="278.8125" y="672" xlink:href="#n"/>
  <use x="308.492188" y="672" xlink:href="#m"/>
  <use x="329.015625" y="672" xlink:href="#c"/>
  <use x="342.820312" y="672" xlink:href="#d"/>
  <use x="362.058594" y="672" xlink:href="#l"/>
  <use x="371.65625" y="672" xlink:href="#a"/>
  <use x="390.648438" y="672" xlink:href="#e"/>
  <use x="407.242188" y="672" xlink:href="#b"/>
 </g>
</svg>
